<svg width="23" height="23" viewBox="0 0 23 23" fill="none" xmlns="http://www.w3.org/2000/svg">
<path d="M10 13C11.3807 13 12.5 11.8807 12.5 10.5C12.5 9.11929 11.3807 8 10 8C8.61929 8 7.5 9.11929 7.5 10.5C7.5 11.8807 8.61929 13 10 13Z" stroke="#3626A7" stroke-width="1.25"/>
<path d="M10.0001 21.3333C14.6024 21.3333 18.3334 17.6024 18.3334 13C18.3334 8.39765 14.6024 4.66669 10.0001 4.66669C5.39771 4.66669 1.66675 8.39765 1.66675 13C1.66675 17.6024 5.39771 21.3333 10.0001 21.3333Z" stroke="#3626A7" stroke-width="1.25"/>
<path d="M14.9743 19.6667C14.8417 17.2571 14.1039 15.5 9.99996 15.5C5.89601 15.5 5.15826 17.2571 5.02563 19.6667" stroke="#3626A7" stroke-width="1.25" stroke-linecap="round"/>
<g clip-path="url(#clip0_3_15)">
<path d="M17 11.5C20.0376 11.5 22.5 9.03757 22.5 6C22.5 2.96243 20.0376 0.5 17 0.5C13.9624 0.5 11.5 2.96243 11.5 6C11.5 9.03757 13.9624 11.5 17 11.5Z" fill="#26A761" stroke="white"/>
<path fill-rule="evenodd" clip-rule="evenodd" d="M16.812 8C16.7012 8 16.5893 7.95325 16.5046 7.8591L15.1275 6.33935C14.9575 6.1517 14.9575 5.84814 15.1275 5.66049C15.2974 5.47284 15.5724 5.47284 15.7424 5.66049L16.812 6.84017L19.2576 4.14074C19.4276 3.95309 19.7026 3.95309 19.8725 4.14074C20.0425 4.32838 20.0425 4.63195 19.8725 4.8196L17.1195 7.8591C17.0348 7.95325 16.9234 8 16.812 8Z" fill="white"/>
</g>
<defs>
<clipPath id="clip0_3_15">
<rect width="12" height="12" fill="white" transform="translate(11)"/>
</clipPath>
</defs>
</svg>
