<svg width="20" height="20" viewBox="0 0 20 20" fill="none" xmlns="http://www.w3.org/2000/svg">
<g clip-path="url(#clip0_102_15)">
<path d="M9.04297 4.08599C6.64453 4.33208 4.56641 5.16802 2.78516 6.60552C2.07031 7.18365 1.19141 8.11724 0.636719 8.88677C0.320312 9.33208 0 9.88677 0 9.99615C0 10.1876 0.582031 11.0821 1.15625 11.7774C1.54688 12.2501 2.31641 13.0157 2.78516 13.3946C4.41797 14.711 6.30078 15.5274 8.45703 15.8477C9.17969 15.9532 10.918 15.9454 11.6602 15.8282C13.6562 15.5157 15.3516 14.8008 16.9492 13.6055C17.4883 13.1954 18.4023 12.3204 18.8477 11.7774C19.4219 11.0782 20 10.1876 20 10.0001C20 9.81255 19.4219 8.92193 18.8477 8.22271C18.3984 7.67583 17.4883 6.80474 16.9336 6.38677C15.6484 5.41802 14.2891 4.76958 12.7539 4.39068C11.8164 4.16021 11.2773 4.09771 10.1758 4.08208C9.64062 4.07427 9.12891 4.07818 9.04297 4.08599ZM10.8867 4.92583C14.0742 5.19146 17 6.89849 18.793 9.53911L19.1055 10.0001L18.793 10.4571C17.2656 12.711 14.8984 14.3008 12.2266 14.8751C11.4219 15.0508 10.9609 15.0938 9.98047 15.0938C9.21875 15.0899 8.94141 15.0743 8.49609 15.0079C6.12891 14.6407 4.16797 13.6602 2.51562 12.0118C1.88672 11.3868 1.55859 10.9961 1.14844 10.3829L0.894531 10.0001L1.13672 9.63677C1.95312 8.42193 3.125 7.2774 4.35547 6.50786C6.28125 5.29693 8.60938 4.73443 10.8867 4.92583Z" fill="#B1B5C3"/>
<path d="M9.48438 6.28909C8.65234 6.42191 7.9375 6.78128 7.35938 7.35941C6.875 7.84378 6.52344 8.46487 6.35938 9.12503C6.23828 9.61331 6.23828 10.3867 6.35938 10.875C6.71094 12.2852 7.82422 13.3555 9.27734 13.6758C9.65625 13.7578 10.4609 13.7422 10.875 13.6407C12.2852 13.293 13.3555 12.1758 13.6758 10.7227C13.7578 10.3438 13.7422 9.53909 13.6406 9.12503C13.4766 8.46878 13.125 7.84769 12.6406 7.35941C12.1602 6.87894 11.5312 6.52347 10.8945 6.36722C10.5195 6.27737 9.8125 6.23831 9.48438 6.28909ZM10.7188 7.19144C12 7.50003 12.8945 8.65628 12.8945 10C12.8945 11.6211 11.6211 12.8946 10 12.8946C8.375 12.8946 7.10547 11.625 7.10547 10C7.10547 8.30472 8.5 6.99612 10.1953 7.10159C10.3125 7.10941 10.5508 7.14847 10.7188 7.19144Z" fill="#B1B5C3"/>
</g>
<defs>
<clipPath id="clip0_102_15">
<rect width="20" height="20" fill="white"/>
</clipPath>
</defs>
</svg>
