<svg width="16" height="16" viewBox="0 0 16 16" fill="none" xmlns="http://www.w3.org/2000/svg">
<g clip-path="url(#clip0_1_3014)">
<path d="M3.64645 8.3536C3.45119 8.15833 3.45119 7.84175 3.64645 7.64649L4.97978 6.31316C5.17504 6.11789 5.49163 6.11789 5.68689 6.31316C5.88215 6.50842 5.88215 6.825 5.68689 7.02026L5.20711 7.50004L10 7.50004C10.2761 7.50004 10.5 7.7239 10.5 8.00004C10.5 8.27618 10.2761 8.50004 10 8.50004L5.20711 8.50004L5.68689 8.97982C5.88215 9.17508 5.88215 9.49167 5.68689 9.68693C5.49163 9.88219 5.17504 9.88219 4.97978 9.68693L3.64645 8.3536Z" fill="#151515"/>
<path fill-rule="evenodd" clip-rule="evenodd" d="M9.29689 0.833374H10.0367C10.9485 0.833361 11.6833 0.83335 12.2613 0.911057C12.8614 0.991735 13.3666 1.16433 13.7679 1.56561C14.1692 1.96689 14.3418 2.47214 14.4225 3.07221C14.5002 3.65019 14.5002 4.38507 14.5001 5.2968V10.7033C14.5002 11.615 14.5002 12.3499 14.4225 12.9279C14.3418 13.5279 14.1692 14.0332 13.7679 14.4345C13.3666 14.8358 12.8614 15.0083 12.2613 15.089C11.6833 15.1667 10.9485 15.1667 10.0367 15.1667H9.2969C8.38517 15.1667 7.65029 15.1667 7.07231 15.089C6.47224 15.0083 5.96699 14.8358 5.56571 14.4345C5.29975 14.1685 5.13379 13.8563 5.0287 13.4999C4.39445 13.4991 3.86604 13.4921 3.43792 13.4346C2.92862 13.3661 2.48707 13.2179 2.1346 12.8654C1.78214 12.513 1.63395 12.0714 1.56548 11.5621C1.49997 11.0749 1.49998 10.4577 1.5 9.70252V6.29758C1.49998 5.54237 1.49997 4.9252 1.56548 4.43796C1.63395 3.92866 1.78214 3.48711 2.1346 3.13464C2.48707 2.78218 2.92862 2.63399 3.43792 2.56552C3.86604 2.50796 4.39445 2.50099 5.0287 2.50015C5.13379 2.14379 5.29975 1.83157 5.56571 1.56561C5.96699 1.16433 6.47224 0.991735 7.07231 0.911057C7.65029 0.83335 8.38517 0.833361 9.29689 0.833374ZM4.83464 11.3362C4.83704 11.7658 4.84413 12.1529 4.86856 12.4994C4.31224 12.4973 3.89867 12.4875 3.57117 12.4435C3.17276 12.3899 2.9774 12.294 2.84171 12.1583C2.70602 12.0226 2.61013 11.8273 2.55656 11.4289C2.50106 11.0161 2.5 10.4665 2.5 9.66671V6.33338C2.5 5.53357 2.50106 4.98401 2.55656 4.57121C2.61013 4.1728 2.70602 3.97744 2.84171 3.84175C2.9774 3.70606 3.17276 3.61017 3.57117 3.5566C3.89867 3.51257 4.31224 3.5028 4.86856 3.50065C4.84413 3.8472 4.83704 4.23423 4.83464 4.66393C4.83311 4.94006 5.05572 5.16516 5.33185 5.1667C5.60799 5.16824 5.83309 4.94563 5.83463 4.66949C5.83869 3.94049 5.85762 3.42377 5.92965 3.03161C5.99906 2.65373 6.11052 2.43502 6.27282 2.27271C6.45733 2.08821 6.71638 1.96791 7.20556 1.90214C7.70913 1.83444 8.37653 1.83338 9.33348 1.83338H10.0001C10.9571 1.83338 11.6245 1.83444 12.1281 1.90214C12.6172 1.96791 12.8763 2.08821 13.0608 2.27271C13.2453 2.45722 13.3656 2.71627 13.4314 3.20546C13.4991 3.70902 13.5001 4.37643 13.5001 5.33338V10.6667C13.5001 11.6237 13.4991 12.2911 13.4314 12.7946C13.3656 13.2838 13.2453 13.5429 13.0608 13.7274C12.8763 13.9119 12.6172 14.0322 12.1281 14.0979C11.6245 14.1656 10.9571 14.1667 10.0001 14.1667H9.33348C8.37653 14.1667 7.70913 14.1656 7.20556 14.0979C6.71638 14.0322 6.45733 13.9119 6.27282 13.7274C6.11052 13.5651 5.99906 13.3464 5.92965 12.9685C5.85762 12.5763 5.83869 12.0596 5.83463 11.3306C5.83309 11.0545 5.60799 10.8318 5.33185 10.8334C5.05572 10.8349 4.83311 11.06 4.83464 11.3362Z" fill="#151515"/>
</g>
<defs>
<clipPath id="clip0_1_3014">
<rect y="3.05176e-05" width="16" height="16" rx="3.33333" fill="white"/>
</clipPath>
</defs>
</svg>
