<svg width="16" height="16" viewBox="0 0 16 16" fill="none" xmlns="http://www.w3.org/2000/svg">
<path fill-rule="evenodd" clip-rule="evenodd" d="M3.38579 3.37941C5.91601 0.852751 10.0291 0.879616 12.5748 3.42531C15.1216 5.97211 15.1474 10.0876 12.6174 12.6176C10.0875 15.1475 5.97195 15.1217 3.42516 12.575C1.91592 11.0657 1.29269 9.00674 1.56031 7.05428C1.59781 6.7807 1.85 6.58931 2.12358 6.62681C2.39717 6.66431 2.58855 6.9165 2.55105 7.19008C2.3244 8.84362 2.85188 10.5875 4.13226 11.8678C6.29525 14.0308 9.77759 14.0432 11.9103 11.9105C14.0431 9.77775 14.0307 6.29541 11.8677 4.13242C9.70581 1.97054 6.22592 1.95706 4.0929 4.08651L4.59137 4.08902C4.86751 4.0904 5.09023 4.31538 5.08885 4.59152C5.08746 4.86766 4.86248 5.09039 4.58634 5.089L2.88931 5.08047C2.61513 5.0791 2.3932 4.85717 2.39183 4.58299L2.3833 2.88596C2.38191 2.60982 2.60464 2.38484 2.88078 2.38345C3.15692 2.38206 3.3819 2.60479 3.38328 2.88093L3.38579 3.37941ZM7.99992 4.83341C8.27606 4.83341 8.49992 5.05727 8.49992 5.33341V7.79297L10.0201 9.31319C10.2154 9.50845 10.2154 9.82503 10.0201 10.0203C9.82488 10.2156 9.5083 10.2156 9.31303 10.0203L7.49992 8.20718V5.33341C7.49992 5.05727 7.72378 4.83341 7.99992 4.83341Z" fill="#151515"/>
</svg>
